%TF.GenerationSoftware,KiCad,Pcbnew,(6.0.2)*%
%TF.CreationDate,2024-03-29T16:16:56-05:00*%
%TF.ProjectId,Security_Mat,53656375-7269-4747-995f-4d61742e6b69,rev?*%
%TF.SameCoordinates,Original*%
%TF.FileFunction,Copper,L1,Top*%
%TF.FilePolarity,Positive*%
%FSLAX46Y46*%
G04 Gerber Fmt 4.6, Leading zero omitted, Abs format (unit mm)*
G04 Created by KiCad (PCBNEW (6.0.2)) date 2024-03-29 16:16:56*
%MOMM*%
%LPD*%
G01*
G04 APERTURE LIST*
G04 Aperture macros list*
%AMRoundRect*
0 Rectangle with rounded corners*
0 $1 Rounding radius*
0 $2 $3 $4 $5 $6 $7 $8 $9 X,Y pos of 4 corners*
0 Add a 4 corners polygon primitive as box body*
4,1,4,$2,$3,$4,$5,$6,$7,$8,$9,$2,$3,0*
0 Add four circle primitives for the rounded corners*
1,1,$1+$1,$2,$3*
1,1,$1+$1,$4,$5*
1,1,$1+$1,$6,$7*
1,1,$1+$1,$8,$9*
0 Add four rect primitives between the rounded corners*
20,1,$1+$1,$2,$3,$4,$5,0*
20,1,$1+$1,$4,$5,$6,$7,0*
20,1,$1+$1,$6,$7,$8,$9,0*
20,1,$1+$1,$8,$9,$2,$3,0*%
G04 Aperture macros list end*
%TA.AperFunction,ComponentPad*%
%ADD10C,1.170000*%
%TD*%
%TA.AperFunction,ComponentPad*%
%ADD11O,2.000000X1.905000*%
%TD*%
%TA.AperFunction,ComponentPad*%
%ADD12O,1.905000X2.000000*%
%TD*%
%TA.AperFunction,ComponentPad*%
%ADD13C,1.400000*%
%TD*%
%TA.AperFunction,ComponentPad*%
%ADD14O,1.400000X1.400000*%
%TD*%
%TA.AperFunction,SMDPad,CuDef*%
%ADD15RoundRect,0.200000X-0.275000X0.200000X-0.275000X-0.200000X0.275000X-0.200000X0.275000X0.200000X0*%
%TD*%
%TA.AperFunction,ComponentPad*%
%ADD16R,3.000000X3.000000*%
%TD*%
%TA.AperFunction,ComponentPad*%
%ADD17C,3.000000*%
%TD*%
%TA.AperFunction,ComponentPad*%
%ADD18R,1.700000X1.700000*%
%TD*%
%TA.AperFunction,ComponentPad*%
%ADD19O,1.700000X1.700000*%
%TD*%
%TA.AperFunction,SMDPad,CuDef*%
%ADD20RoundRect,0.250000X0.312500X0.625000X-0.312500X0.625000X-0.312500X-0.625000X0.312500X-0.625000X0*%
%TD*%
%TA.AperFunction,ComponentPad*%
%ADD21C,1.508000*%
%TD*%
%TA.AperFunction,ComponentPad*%
%ADD22R,2.000000X1.905000*%
%TD*%
%TA.AperFunction,SMDPad,CuDef*%
%ADD23RoundRect,0.200000X-0.200000X-0.275000X0.200000X-0.275000X0.200000X0.275000X-0.200000X0.275000X0*%
%TD*%
%TA.AperFunction,ComponentPad*%
%ADD24C,1.280000*%
%TD*%
%TA.AperFunction,Conductor*%
%ADD25C,0.250000*%
%TD*%
G04 APERTURE END LIST*
D10*
%TO.P,U1,1,RXD*%
%TO.N,Net-(R6-Pad1)*%
X155644000Y-81570000D03*
%TO.P,U1,2,TX*%
%TO.N,Net-(J7-Pad9)*%
X155644000Y-83070000D03*
%TO.P,U1,3,GND*%
%TO.N,Net-(R7-Pad1)*%
X155644000Y-84570000D03*
%TO.P,U1,4,Vcc*%
%TO.N,/5V*%
X155644000Y-86070000D03*
%TD*%
D11*
%TO.P,Q2,1,G*%
%TO.N,Net-(J11-Pad2)*%
X120467000Y-100584000D03*
%TO.P,Q2,2,D*%
%TO.N,Net-(J7-Pad6)*%
X120467000Y-103124000D03*
%TO.P,Q2,3,S*%
%TO.N,GND*%
X120467000Y-105664000D03*
%TD*%
D12*
%TO.P,Q1,3,S*%
%TO.N,GND*%
X125857000Y-89083000D03*
%TO.P,Q1,2,D*%
%TO.N,Net-(J7-Pad5)*%
X123317000Y-89083000D03*
%TO.P,Q1,1,G*%
%TO.N,Net-(J12-Pad2)*%
X120777000Y-89083000D03*
%TD*%
D13*
%TO.P,R6,1*%
%TO.N,Net-(R6-Pad1)*%
X155067000Y-76835000D03*
D14*
%TO.P,R6,2*%
%TO.N,Net-(J7-Pad10)*%
X149987000Y-76835000D03*
%TD*%
D13*
%TO.P,R5,1*%
%TO.N,Net-(J4-Pad2)*%
X162179000Y-99949000D03*
D14*
%TO.P,R5,2*%
%TO.N,GND*%
X157099000Y-99949000D03*
%TD*%
D13*
%TO.P,R4,1*%
%TO.N,Net-(J3-Pad2)*%
X161544000Y-90043000D03*
D14*
%TO.P,R4,2*%
%TO.N,GND*%
X156464000Y-90043000D03*
%TD*%
D13*
%TO.P,R3,1*%
%TO.N,Net-(J2-Pad2)*%
X162814000Y-72898000D03*
D14*
%TO.P,R3,2*%
%TO.N,GND*%
X157734000Y-72898000D03*
%TD*%
D15*
%TO.P,R2,1*%
%TO.N,Net-(J1-Pad2)*%
X162814000Y-66167000D03*
%TO.P,R2,2*%
%TO.N,GND*%
X162814000Y-67817000D03*
%TD*%
D16*
%TO.P,J9,1,Pin_1*%
%TO.N,unconnected-(J9-Pad1)*%
X113157000Y-101727000D03*
D17*
%TO.P,J9,2,Pin_2*%
%TO.N,Net-(J5-Pad8)*%
X113157000Y-106807000D03*
%TD*%
D18*
%TO.P,J8,1,7*%
%TO.N,Net-(J8-Pad1)*%
X153990000Y-62390000D03*
D19*
%TO.P,J8,2,6*%
%TO.N,unconnected-(J8-Pad2)*%
X156530000Y-62390000D03*
%TO.P,J8,3,5*%
%TO.N,unconnected-(J8-Pad3)*%
X159070000Y-62390000D03*
%TO.P,J8,4,4*%
%TO.N,unconnected-(J8-Pad4)*%
X161610000Y-62390000D03*
%TO.P,J8,5,3*%
%TO.N,unconnected-(J8-Pad5)*%
X164150000Y-62390000D03*
%TO.P,J8,6,2*%
%TO.N,unconnected-(J8-Pad6)*%
X166690000Y-62390000D03*
%TO.P,J8,7,TX-1*%
%TO.N,unconnected-(J8-Pad7)*%
X169230000Y-62390000D03*
%TO.P,J8,8,RX-0*%
%TO.N,unconnected-(J8-Pad8)*%
X171770000Y-62390000D03*
%TD*%
D20*
%TO.P,R7,1*%
%TO.N,Net-(R7-Pad1)*%
X143956500Y-67183000D03*
%TO.P,R7,2*%
%TO.N,Net-(J7-Pad4)*%
X141031500Y-67183000D03*
%TD*%
D16*
%TO.P,J2,1,Pin_1*%
%TO.N,/5V*%
X168021000Y-83439000D03*
D17*
%TO.P,J2,2,Pin_2*%
%TO.N,Net-(J2-Pad2)*%
X168021000Y-78359000D03*
%TD*%
D16*
%TO.P,J3,1,Pin_1*%
%TO.N,/5V*%
X168021000Y-94234000D03*
D17*
%TO.P,J3,2,Pin_2*%
%TO.N,Net-(J3-Pad2)*%
X168021000Y-89154000D03*
%TD*%
D19*
%TO.P,J7,10,8*%
%TO.N,Net-(J7-Pad10)*%
X149960000Y-62350000D03*
%TO.P,J7,9,9*%
%TO.N,Net-(J7-Pad9)*%
X147420000Y-62350000D03*
%TO.P,J7,8,10*%
%TO.N,Net-(J7-Pad8)*%
X144880000Y-62350000D03*
%TO.P,J7,7,11*%
%TO.N,Net-(J7-Pad7)*%
X142340000Y-62350000D03*
%TO.P,J7,6,12*%
%TO.N,Net-(J7-Pad6)*%
X139800000Y-62350000D03*
%TO.P,J7,5,13*%
%TO.N,Net-(J7-Pad5)*%
X137260000Y-62350000D03*
%TO.P,J7,4,GND*%
%TO.N,Net-(J7-Pad4)*%
X134720000Y-62350000D03*
%TO.P,J7,3,AREF*%
%TO.N,unconnected-(J7-Pad3)*%
X132180000Y-62350000D03*
%TO.P,J7,2,SDA*%
%TO.N,unconnected-(J7-Pad2)*%
X129640000Y-62350000D03*
D18*
%TO.P,J7,1,SCL*%
%TO.N,unconnected-(J7-Pad1)*%
X127100000Y-62350000D03*
%TD*%
%TO.P,J5,1*%
%TO.N,unconnected-(J5-Pad1)*%
X136300000Y-110700000D03*
D19*
%TO.P,J5,2,IOREF*%
%TO.N,unconnected-(J5-Pad2)*%
X138840000Y-110700000D03*
%TO.P,J5,3,RESET*%
%TO.N,unconnected-(J5-Pad3)*%
X141380000Y-110700000D03*
%TO.P,J5,4,3.3V*%
%TO.N,unconnected-(J5-Pad4)*%
X143920000Y-110700000D03*
%TO.P,J5,5,5V*%
%TO.N,/5V*%
X146460000Y-110700000D03*
%TO.P,J5,6,GND*%
%TO.N,unconnected-(J5-Pad6)*%
X149000000Y-110700000D03*
%TO.P,J5,7,GND*%
%TO.N,unconnected-(J5-Pad7)*%
X151540000Y-110700000D03*
%TO.P,J5,8,Vin*%
%TO.N,Net-(J5-Pad8)*%
X154080000Y-110700000D03*
%TD*%
D21*
%TO.P,SW1,1,A*%
%TO.N,/5V*%
X150408000Y-71628000D03*
%TO.P,SW1,2,B*%
%TO.N,Net-(J8-Pad1)*%
X155408000Y-71628000D03*
%TD*%
D22*
%TO.P,Q3,1,G*%
%TO.N,Net-(J10-Pad2)*%
X120975000Y-66167000D03*
D11*
%TO.P,Q3,2,D*%
%TO.N,Net-(J7-Pad7)*%
X120975000Y-68707000D03*
%TO.P,Q3,3,S*%
%TO.N,GND*%
X120975000Y-71247000D03*
%TD*%
D18*
%TO.P,J6,1,A0*%
%TO.N,Net-(J1-Pad2)*%
X159070000Y-110650000D03*
D19*
%TO.P,J6,2,A1*%
%TO.N,Net-(J2-Pad2)*%
X161610000Y-110650000D03*
%TO.P,J6,3,A2*%
%TO.N,Net-(J3-Pad2)*%
X164150000Y-110650000D03*
%TO.P,J6,4,A3*%
%TO.N,Net-(J4-Pad2)*%
X166690000Y-110650000D03*
%TO.P,J6,5,A4*%
%TO.N,unconnected-(J6-Pad5)*%
X169230000Y-110650000D03*
%TO.P,J6,6,A5*%
%TO.N,unconnected-(J6-Pad6)*%
X171770000Y-110650000D03*
%TD*%
D16*
%TO.P,J1,1,Pin_1*%
%TO.N,/5V*%
X168021000Y-72517000D03*
D17*
%TO.P,J1,2,Pin_2*%
%TO.N,Net-(J1-Pad2)*%
X168021000Y-67437000D03*
%TD*%
D23*
%TO.P,R1,1*%
%TO.N,Net-(J8-Pad1)*%
X157290000Y-67691000D03*
%TO.P,R1,2*%
%TO.N,GND*%
X158940000Y-67691000D03*
%TD*%
D16*
%TO.P,J10,1,Pin_1*%
%TO.N,unconnected-(J10-Pad1)*%
X113157000Y-66294000D03*
D17*
%TO.P,J10,2,Pin_2*%
%TO.N,Net-(J10-Pad2)*%
X113157000Y-71374000D03*
%TD*%
D24*
%TO.P,LS1,1*%
%TO.N,Net-(J7-Pad8)*%
X138898000Y-101092000D03*
%TO.P,LS1,2*%
%TO.N,GND*%
X133898000Y-101092000D03*
%TD*%
D16*
%TO.P,J11,1,Pin_1*%
%TO.N,unconnected-(J11-Pad1)*%
X113157000Y-77470000D03*
D17*
%TO.P,J11,2,Pin_2*%
%TO.N,Net-(J11-Pad2)*%
X113157000Y-82550000D03*
%TD*%
D16*
%TO.P,J4,1,Pin_1*%
%TO.N,/5V*%
X168529000Y-105029000D03*
D17*
%TO.P,J4,2,Pin_2*%
%TO.N,Net-(J4-Pad2)*%
X168529000Y-99949000D03*
%TD*%
D16*
%TO.P,J12,1,Pin_1*%
%TO.N,unconnected-(J12-Pad1)*%
X113792000Y-88900000D03*
D17*
%TO.P,J12,2,Pin_2*%
%TO.N,Net-(J12-Pad2)*%
X113792000Y-93980000D03*
%TD*%
D25*
%TO.N,Net-(J7-Pad7)*%
X127093478Y-60007500D02*
X142049500Y-60007500D01*
X124841000Y-62259978D02*
X127093478Y-60007500D01*
X124841000Y-64841000D02*
X124841000Y-62259978D01*
X120975000Y-68707000D02*
X124841000Y-64841000D01*
%TO.N,GND*%
X125857000Y-84201000D02*
X125857000Y-89083000D01*
X118491000Y-84201000D02*
X125857000Y-84201000D01*
X118237000Y-83947000D02*
X118491000Y-84201000D01*
X118237000Y-74295000D02*
X118237000Y-83947000D01*
X109474000Y-74295000D02*
X118237000Y-74295000D01*
X108077000Y-75692000D02*
X109474000Y-74295000D01*
X108077000Y-95563197D02*
X108077000Y-75692000D01*
X110811803Y-98298000D02*
X108077000Y-95563197D01*
X116840000Y-98298000D02*
X110811803Y-98298000D01*
X117983000Y-105664000D02*
X117348000Y-105029000D01*
X117348000Y-105029000D02*
X117348000Y-98806000D01*
X117348000Y-98806000D02*
X116840000Y-98298000D01*
X120467000Y-105664000D02*
X117983000Y-105664000D01*
X118237000Y-74295000D02*
X118237000Y-71247000D01*
%TO.N,Net-(J5-Pad8)*%
X117221000Y-110871000D02*
X113157000Y-106807000D01*
X153289000Y-112649000D02*
X129540000Y-112649000D01*
X129540000Y-112649000D02*
X127762000Y-110871000D01*
X154080000Y-110700000D02*
X154080000Y-111858000D01*
X154080000Y-111858000D02*
X153289000Y-112649000D01*
X127762000Y-110871000D02*
X117221000Y-110871000D01*
%TO.N,Net-(J7-Pad10)*%
X148336000Y-67564000D02*
X149960000Y-65940000D01*
X148336000Y-75184000D02*
X148336000Y-67564000D01*
X149987000Y-76835000D02*
X148336000Y-75184000D01*
X149960000Y-65940000D02*
X149960000Y-62350000D01*
%TO.N,Net-(R6-Pad1)*%
X155067000Y-80993000D02*
X155644000Y-81570000D01*
X155067000Y-76835000D02*
X155067000Y-80993000D01*
%TO.N,/5V*%
X150408000Y-72684000D02*
X150408000Y-71628000D01*
X151130000Y-73406000D02*
X150408000Y-72684000D01*
X155956000Y-73406000D02*
X151130000Y-73406000D01*
X158115000Y-75565000D02*
X155956000Y-73406000D01*
X158115000Y-85598000D02*
X158115000Y-75565000D01*
X157643000Y-86070000D02*
X158115000Y-85598000D01*
X155644000Y-86070000D02*
X157643000Y-86070000D01*
%TO.N,Net-(J2-Pad2)*%
X164211000Y-78359000D02*
X164592000Y-78359000D01*
X163957000Y-78613000D02*
X164211000Y-78359000D01*
X161036000Y-87503000D02*
X163068000Y-87503000D01*
X159766000Y-88773000D02*
X161036000Y-87503000D01*
X159766000Y-104394000D02*
X159766000Y-88773000D01*
X161610000Y-106238000D02*
X159766000Y-104394000D01*
X163068000Y-87503000D02*
X163957000Y-86614000D01*
X163957000Y-86614000D02*
X163957000Y-78613000D01*
X161610000Y-110650000D02*
X161610000Y-106238000D01*
%TO.N,Net-(J1-Pad2)*%
X160718500Y-73469500D02*
X165417500Y-68770500D01*
X160782000Y-77597000D02*
X160718500Y-77533500D01*
X158623000Y-100711000D02*
X158623000Y-88773000D01*
X158623000Y-88773000D02*
X160782000Y-86614000D01*
X157988000Y-101346000D02*
X158623000Y-100711000D01*
X157988000Y-109568000D02*
X157988000Y-101346000D01*
X160718500Y-77533500D02*
X160718500Y-73469500D01*
X159070000Y-110650000D02*
X157988000Y-109568000D01*
X160782000Y-86614000D02*
X160782000Y-77597000D01*
%TO.N,Net-(J7-Pad7)*%
X142340000Y-60298000D02*
X142049500Y-60007500D01*
X142340000Y-62350000D02*
X142340000Y-60298000D01*
X142367000Y-60325000D02*
X142049500Y-60007500D01*
%TO.N,Net-(J7-Pad9)*%
X147420000Y-81634000D02*
X147420000Y-62350000D01*
X148856000Y-83070000D02*
X147420000Y-81634000D01*
X155644000Y-83070000D02*
X148856000Y-83070000D01*
%TO.N,GND*%
X159512000Y-73533000D02*
X158877000Y-72898000D01*
X159512000Y-86995000D02*
X159512000Y-73533000D01*
X158877000Y-72898000D02*
X157734000Y-72898000D01*
X156464000Y-90043000D02*
X159512000Y-86995000D01*
%TO.N,Net-(R7-Pad1)*%
X145923000Y-81661000D02*
X145923000Y-67310000D01*
X145796000Y-67183000D02*
X143956500Y-67183000D01*
X148832000Y-84570000D02*
X145923000Y-81661000D01*
X145923000Y-67310000D02*
X145796000Y-67183000D01*
X155644000Y-84570000D02*
X148832000Y-84570000D01*
%TO.N,Net-(J2-Pad2)*%
X162814000Y-76581000D02*
X164592000Y-78359000D01*
X162814000Y-72898000D02*
X162814000Y-76581000D01*
X164592000Y-78359000D02*
X168021000Y-78359000D01*
%TO.N,GND*%
X156464000Y-99314000D02*
X157099000Y-99949000D01*
X156464000Y-90043000D02*
X156464000Y-99314000D01*
X146304000Y-90043000D02*
X156464000Y-90043000D01*
X145288000Y-91059000D02*
X146304000Y-90043000D01*
X145288000Y-102616000D02*
X145288000Y-91059000D01*
%TO.N,/5V*%
X173609000Y-59563000D02*
X173609000Y-73533000D01*
X153035000Y-59436000D02*
X173482000Y-59436000D01*
X151892000Y-60579000D02*
X153035000Y-59436000D01*
X151892000Y-70485000D02*
X151892000Y-60579000D01*
X173482000Y-59436000D02*
X173609000Y-59563000D01*
X150749000Y-71628000D02*
X151892000Y-70485000D01*
X150408000Y-71628000D02*
X150749000Y-71628000D01*
%TO.N,Net-(J8-Pad1)*%
X155408000Y-69573000D02*
X157290000Y-67691000D01*
X155408000Y-71628000D02*
X155408000Y-69573000D01*
%TO.N,GND*%
X159004000Y-67755000D02*
X158940000Y-67691000D01*
X157734000Y-70612000D02*
X159004000Y-69342000D01*
X159004000Y-69342000D02*
X159004000Y-67755000D01*
X157734000Y-72898000D02*
X157734000Y-70612000D01*
%TO.N,Net-(J1-Pad2)*%
X165417500Y-68770500D02*
X165989000Y-69342000D01*
X165036500Y-68389500D02*
X165417500Y-68770500D01*
%TO.N,Net-(J3-Pad2)*%
X167132000Y-90043000D02*
X168021000Y-89154000D01*
X161544000Y-90043000D02*
X167132000Y-90043000D01*
X160655000Y-101092000D02*
X160655000Y-90932000D01*
X164150000Y-104587000D02*
X160655000Y-101092000D01*
X160655000Y-90932000D02*
X161544000Y-90043000D01*
X164150000Y-110650000D02*
X164150000Y-104587000D01*
%TO.N,Net-(J4-Pad2)*%
X166433500Y-100901500D02*
X166433500Y-101028500D01*
X165481000Y-99949000D02*
X166433500Y-100901500D01*
X166433500Y-101028500D02*
X167513000Y-99949000D01*
X165481000Y-101981000D02*
X166433500Y-101028500D01*
X162179000Y-99949000D02*
X165481000Y-99949000D01*
X167513000Y-99949000D02*
X168529000Y-99949000D01*
X166690000Y-109286000D02*
X165481000Y-108077000D01*
X166690000Y-110650000D02*
X166690000Y-109286000D01*
X165481000Y-108077000D02*
X165481000Y-101981000D01*
%TO.N,/5V*%
X168529000Y-105029000D02*
X173355000Y-105029000D01*
X173609000Y-104775000D02*
X173609000Y-112395000D01*
X173355000Y-105029000D02*
X173609000Y-104775000D01*
X173609000Y-93726000D02*
X173609000Y-104775000D01*
%TO.N,Net-(J1-Pad2)*%
X165036500Y-66230500D02*
X164846000Y-66040000D01*
X162941000Y-66040000D02*
X162814000Y-66167000D01*
X165036500Y-68389500D02*
X165036500Y-66230500D01*
X164846000Y-66040000D02*
X162941000Y-66040000D01*
%TO.N,/5V*%
X165354000Y-112776000D02*
X157607000Y-112776000D01*
X173228000Y-112776000D02*
X165354000Y-112776000D01*
X146460000Y-108175000D02*
X146460000Y-110700000D01*
X146812000Y-107823000D02*
X146460000Y-108175000D01*
X157295000Y-112464000D02*
X157295000Y-110305000D01*
X157607000Y-112776000D02*
X157295000Y-112464000D01*
X157295000Y-110305000D02*
X154813000Y-107823000D01*
X154813000Y-107823000D02*
X146812000Y-107823000D01*
X173609000Y-112395000D02*
X173228000Y-112776000D01*
%TO.N,GND*%
X158940000Y-67691000D02*
X160782000Y-67691000D01*
X118237000Y-71247000D02*
X120975000Y-71247000D01*
X160782000Y-67691000D02*
X162688000Y-67691000D01*
X162688000Y-67691000D02*
X162814000Y-67817000D01*
X145288000Y-102616000D02*
X145288000Y-107315000D01*
X133898000Y-101092000D02*
X133898000Y-107609000D01*
X134366000Y-108077000D02*
X121793000Y-108077000D01*
X121793000Y-108077000D02*
X120467000Y-106751000D01*
X133898000Y-107609000D02*
X134366000Y-108077000D01*
X144526000Y-108077000D02*
X134366000Y-108077000D01*
X120467000Y-106751000D02*
X120467000Y-105664000D01*
X145288000Y-107315000D02*
X144526000Y-108077000D01*
X162624000Y-67627000D02*
X162814000Y-67817000D01*
%TO.N,/5V*%
X168021000Y-83439000D02*
X173482000Y-83439000D01*
X173609000Y-93726000D02*
X173609000Y-83566000D01*
X173609000Y-73533000D02*
X173609000Y-73406000D01*
X168021000Y-94234000D02*
X173101000Y-94234000D01*
X173609000Y-83566000D02*
X173609000Y-73533000D01*
X173609000Y-73406000D02*
X172720000Y-72517000D01*
X172720000Y-72517000D02*
X168021000Y-72517000D01*
X173482000Y-83439000D02*
X173609000Y-83566000D01*
X173101000Y-94234000D02*
X173609000Y-93726000D01*
%TO.N,Net-(J1-Pad2)*%
X165989000Y-69342000D02*
X166116000Y-69342000D01*
X166116000Y-69342000D02*
X168021000Y-67437000D01*
%TO.N,Net-(J7-Pad4)*%
X134720000Y-62350000D02*
X134720000Y-61241000D01*
X134720000Y-61241000D02*
X135255000Y-60706000D01*
X141031500Y-67183000D02*
X141031500Y-60894500D01*
X141031500Y-60894500D02*
X140906500Y-60769500D01*
X140843000Y-60706000D02*
X140906500Y-60769500D01*
X135255000Y-60706000D02*
X140843000Y-60706000D01*
%TO.N,Net-(J7-Pad5)*%
X133350000Y-89789000D02*
X129667000Y-93472000D01*
X133350000Y-70485000D02*
X133350000Y-89789000D01*
X137260000Y-62350000D02*
X137260000Y-66575000D01*
X129667000Y-93472000D02*
X124079000Y-93472000D01*
X124079000Y-93472000D02*
X123317000Y-92710000D01*
X123317000Y-92710000D02*
X123317000Y-89083000D01*
X137260000Y-66575000D02*
X133350000Y-70485000D01*
%TO.N,Net-(J7-Pad6)*%
X122301000Y-103124000D02*
X134747000Y-90678000D01*
X134747000Y-70485000D02*
X139800000Y-65432000D01*
X120467000Y-103124000D02*
X122301000Y-103124000D01*
X134747000Y-90678000D02*
X134747000Y-70485000D01*
X139800000Y-65432000D02*
X139800000Y-62350000D01*
%TO.N,Net-(J7-Pad8)*%
X142367000Y-64863000D02*
X144880000Y-62350000D01*
X142367000Y-80137000D02*
X142367000Y-64863000D01*
X138898000Y-83606000D02*
X142367000Y-80137000D01*
X138898000Y-101092000D02*
X138898000Y-83606000D01*
%TO.N,Net-(J8-Pad1)*%
X157290000Y-67691000D02*
X157290000Y-67184000D01*
X157290000Y-67184000D02*
X153990000Y-63884000D01*
X153990000Y-63884000D02*
X153990000Y-62390000D01*
%TO.N,Net-(J10-Pad2)*%
X118364000Y-66167000D02*
X120975000Y-66167000D01*
X113157000Y-71374000D02*
X118364000Y-66167000D01*
%TO.N,Net-(J11-Pad2)*%
X109796520Y-96647000D02*
X109796520Y-85910480D01*
X118491000Y-96647000D02*
X109796520Y-96647000D01*
X120467000Y-100584000D02*
X120467000Y-98623000D01*
X109796520Y-85910480D02*
X113157000Y-82550000D01*
X120467000Y-98623000D02*
X118491000Y-96647000D01*
%TO.N,Net-(J12-Pad2)*%
X118745000Y-93980000D02*
X120777000Y-91948000D01*
X113792000Y-93980000D02*
X118745000Y-93980000D01*
X120777000Y-91948000D02*
X120777000Y-89083000D01*
%TD*%
M02*
