%TF.GenerationSoftware,KiCad,Pcbnew,(6.0.2)*%
%TF.CreationDate,2024-03-29T16:16:56-05:00*%
%TF.ProjectId,Security_Mat,53656375-7269-4747-995f-4d61742e6b69,rev?*%
%TF.SameCoordinates,Original*%
%TF.FileFunction,Legend,Top*%
%TF.FilePolarity,Positive*%
%FSLAX46Y46*%
G04 Gerber Fmt 4.6, Leading zero omitted, Abs format (unit mm)*
G04 Created by KiCad (PCBNEW (6.0.2)) date 2024-03-29 16:16:56*
%MOMM*%
%LPD*%
G01*
G04 APERTURE LIST*
%ADD10C,0.150000*%
%ADD11C,0.120000*%
%ADD12C,0.127000*%
%ADD13C,0.200000*%
G04 APERTURE END LIST*
D10*
X136662380Y-107824285D02*
X136662380Y-108395714D01*
X136662380Y-108110000D02*
X135662380Y-108110000D01*
X135805238Y-108205238D01*
X135900476Y-108300476D01*
X135948095Y-108395714D01*
%TO.C,U1*%
X151496380Y-84381904D02*
X152305904Y-84381904D01*
X152401142Y-84334285D01*
X152448761Y-84286666D01*
X152496380Y-84191428D01*
X152496380Y-84000952D01*
X152448761Y-83905714D01*
X152401142Y-83858095D01*
X152305904Y-83810476D01*
X151496380Y-83810476D01*
X152496380Y-82810476D02*
X152496380Y-83381904D01*
X152496380Y-83096190D02*
X151496380Y-83096190D01*
X151639238Y-83191428D01*
X151734476Y-83286666D01*
X151782095Y-83381904D01*
%TO.C,Q2*%
X125284619Y-103219238D02*
X125237000Y-103314476D01*
X125141761Y-103409714D01*
X124998904Y-103552571D01*
X124951285Y-103647809D01*
X124951285Y-103743047D01*
X125189380Y-103695428D02*
X125141761Y-103790666D01*
X125046523Y-103885904D01*
X124856047Y-103933523D01*
X124522714Y-103933523D01*
X124332238Y-103885904D01*
X124237000Y-103790666D01*
X124189380Y-103695428D01*
X124189380Y-103504952D01*
X124237000Y-103409714D01*
X124332238Y-103314476D01*
X124522714Y-103266857D01*
X124856047Y-103266857D01*
X125046523Y-103314476D01*
X125141761Y-103409714D01*
X125189380Y-103504952D01*
X125189380Y-103695428D01*
X124284619Y-102885904D02*
X124237000Y-102838285D01*
X124189380Y-102743047D01*
X124189380Y-102504952D01*
X124237000Y-102409714D01*
X124284619Y-102362095D01*
X124379857Y-102314476D01*
X124475095Y-102314476D01*
X124617952Y-102362095D01*
X125189380Y-102933523D01*
X125189380Y-102314476D01*
%TO.C,Q1*%
X123221761Y-85360619D02*
X123126523Y-85313000D01*
X123031285Y-85217761D01*
X122888428Y-85074904D01*
X122793190Y-85027285D01*
X122697952Y-85027285D01*
X122745571Y-85265380D02*
X122650333Y-85217761D01*
X122555095Y-85122523D01*
X122507476Y-84932047D01*
X122507476Y-84598714D01*
X122555095Y-84408238D01*
X122650333Y-84313000D01*
X122745571Y-84265380D01*
X122936047Y-84265380D01*
X123031285Y-84313000D01*
X123126523Y-84408238D01*
X123174142Y-84598714D01*
X123174142Y-84932047D01*
X123126523Y-85122523D01*
X123031285Y-85217761D01*
X122936047Y-85265380D01*
X122745571Y-85265380D01*
X124126523Y-85265380D02*
X123555095Y-85265380D01*
X123840809Y-85265380D02*
X123840809Y-84265380D01*
X123745571Y-84408238D01*
X123650333Y-84503476D01*
X123555095Y-84551095D01*
%TO.C,R6*%
X152360333Y-79207380D02*
X152027000Y-78731190D01*
X151788904Y-79207380D02*
X151788904Y-78207380D01*
X152169857Y-78207380D01*
X152265095Y-78255000D01*
X152312714Y-78302619D01*
X152360333Y-78397857D01*
X152360333Y-78540714D01*
X152312714Y-78635952D01*
X152265095Y-78683571D01*
X152169857Y-78731190D01*
X151788904Y-78731190D01*
X153217476Y-78207380D02*
X153027000Y-78207380D01*
X152931761Y-78255000D01*
X152884142Y-78302619D01*
X152788904Y-78445476D01*
X152741285Y-78635952D01*
X152741285Y-79016904D01*
X152788904Y-79112142D01*
X152836523Y-79159761D01*
X152931761Y-79207380D01*
X153122238Y-79207380D01*
X153217476Y-79159761D01*
X153265095Y-79112142D01*
X153312714Y-79016904D01*
X153312714Y-78778809D01*
X153265095Y-78683571D01*
X153217476Y-78635952D01*
X153122238Y-78588333D01*
X152931761Y-78588333D01*
X152836523Y-78635952D01*
X152788904Y-78683571D01*
X152741285Y-78778809D01*
%TO.C,R5*%
X159472333Y-102321380D02*
X159139000Y-101845190D01*
X158900904Y-102321380D02*
X158900904Y-101321380D01*
X159281857Y-101321380D01*
X159377095Y-101369000D01*
X159424714Y-101416619D01*
X159472333Y-101511857D01*
X159472333Y-101654714D01*
X159424714Y-101749952D01*
X159377095Y-101797571D01*
X159281857Y-101845190D01*
X158900904Y-101845190D01*
X160377095Y-101321380D02*
X159900904Y-101321380D01*
X159853285Y-101797571D01*
X159900904Y-101749952D01*
X159996142Y-101702333D01*
X160234238Y-101702333D01*
X160329476Y-101749952D01*
X160377095Y-101797571D01*
X160424714Y-101892809D01*
X160424714Y-102130904D01*
X160377095Y-102226142D01*
X160329476Y-102273761D01*
X160234238Y-102321380D01*
X159996142Y-102321380D01*
X159900904Y-102273761D01*
X159853285Y-102226142D01*
%TO.C,R4*%
X158837333Y-92415380D02*
X158504000Y-91939190D01*
X158265904Y-92415380D02*
X158265904Y-91415380D01*
X158646857Y-91415380D01*
X158742095Y-91463000D01*
X158789714Y-91510619D01*
X158837333Y-91605857D01*
X158837333Y-91748714D01*
X158789714Y-91843952D01*
X158742095Y-91891571D01*
X158646857Y-91939190D01*
X158265904Y-91939190D01*
X159694476Y-91748714D02*
X159694476Y-92415380D01*
X159456380Y-91367761D02*
X159218285Y-92082047D01*
X159837333Y-92082047D01*
%TO.C,R3*%
X160107333Y-75270380D02*
X159774000Y-74794190D01*
X159535904Y-75270380D02*
X159535904Y-74270380D01*
X159916857Y-74270380D01*
X160012095Y-74318000D01*
X160059714Y-74365619D01*
X160107333Y-74460857D01*
X160107333Y-74603714D01*
X160059714Y-74698952D01*
X160012095Y-74746571D01*
X159916857Y-74794190D01*
X159535904Y-74794190D01*
X160440666Y-74270380D02*
X161059714Y-74270380D01*
X160726380Y-74651333D01*
X160869238Y-74651333D01*
X160964476Y-74698952D01*
X161012095Y-74746571D01*
X161059714Y-74841809D01*
X161059714Y-75079904D01*
X161012095Y-75175142D01*
X160964476Y-75222761D01*
X160869238Y-75270380D01*
X160583523Y-75270380D01*
X160488285Y-75222761D01*
X160440666Y-75175142D01*
%TO.C,R2*%
X161869380Y-66714666D02*
X161393190Y-67048000D01*
X161869380Y-67286095D02*
X160869380Y-67286095D01*
X160869380Y-66905142D01*
X160917000Y-66809904D01*
X160964619Y-66762285D01*
X161059857Y-66714666D01*
X161202714Y-66714666D01*
X161297952Y-66762285D01*
X161345571Y-66809904D01*
X161393190Y-66905142D01*
X161393190Y-67286095D01*
X160964619Y-66333714D02*
X160917000Y-66286095D01*
X160869380Y-66190857D01*
X160869380Y-65952761D01*
X160917000Y-65857523D01*
X160964619Y-65809904D01*
X161059857Y-65762285D01*
X161155095Y-65762285D01*
X161297952Y-65809904D01*
X161869380Y-66381333D01*
X161869380Y-65762285D01*
%TO.C,J9*%
X117259380Y-102400333D02*
X117973666Y-102400333D01*
X118116523Y-102447952D01*
X118211761Y-102543190D01*
X118259380Y-102686047D01*
X118259380Y-102781285D01*
X118259380Y-101876523D02*
X118259380Y-101686047D01*
X118211761Y-101590809D01*
X118164142Y-101543190D01*
X118021285Y-101447952D01*
X117830809Y-101400333D01*
X117449857Y-101400333D01*
X117354619Y-101447952D01*
X117307000Y-101495571D01*
X117259380Y-101590809D01*
X117259380Y-101781285D01*
X117307000Y-101876523D01*
X117354619Y-101924142D01*
X117449857Y-101971761D01*
X117687952Y-101971761D01*
X117783190Y-101924142D01*
X117830809Y-101876523D01*
X117878428Y-101781285D01*
X117878428Y-101590809D01*
X117830809Y-101495571D01*
X117783190Y-101447952D01*
X117687952Y-101400333D01*
%TO.C,J8*%
X154652380Y-65333333D02*
X155366666Y-65333333D01*
X155509523Y-65380952D01*
X155604761Y-65476190D01*
X155652380Y-65619047D01*
X155652380Y-65714285D01*
X155080952Y-64714285D02*
X155033333Y-64809523D01*
X154985714Y-64857142D01*
X154890476Y-64904761D01*
X154842857Y-64904761D01*
X154747619Y-64857142D01*
X154700000Y-64809523D01*
X154652380Y-64714285D01*
X154652380Y-64523809D01*
X154700000Y-64428571D01*
X154747619Y-64380952D01*
X154842857Y-64333333D01*
X154890476Y-64333333D01*
X154985714Y-64380952D01*
X155033333Y-64428571D01*
X155080952Y-64523809D01*
X155080952Y-64714285D01*
X155128571Y-64809523D01*
X155176190Y-64857142D01*
X155271428Y-64904761D01*
X155461904Y-64904761D01*
X155557142Y-64857142D01*
X155604761Y-64809523D01*
X155652380Y-64714285D01*
X155652380Y-64523809D01*
X155604761Y-64428571D01*
X155557142Y-64380952D01*
X155461904Y-64333333D01*
X155271428Y-64333333D01*
X155176190Y-64380952D01*
X155128571Y-64428571D01*
X155080952Y-64523809D01*
%TO.C,R7*%
X142327333Y-69455380D02*
X141994000Y-68979190D01*
X141755904Y-69455380D02*
X141755904Y-68455380D01*
X142136857Y-68455380D01*
X142232095Y-68503000D01*
X142279714Y-68550619D01*
X142327333Y-68645857D01*
X142327333Y-68788714D01*
X142279714Y-68883952D01*
X142232095Y-68931571D01*
X142136857Y-68979190D01*
X141755904Y-68979190D01*
X142660666Y-68455380D02*
X143327333Y-68455380D01*
X142898761Y-69455380D01*
%TO.C,J2*%
X162393380Y-81232333D02*
X163107666Y-81232333D01*
X163250523Y-81279952D01*
X163345761Y-81375190D01*
X163393380Y-81518047D01*
X163393380Y-81613285D01*
X162488619Y-80803761D02*
X162441000Y-80756142D01*
X162393380Y-80660904D01*
X162393380Y-80422809D01*
X162441000Y-80327571D01*
X162488619Y-80279952D01*
X162583857Y-80232333D01*
X162679095Y-80232333D01*
X162821952Y-80279952D01*
X163393380Y-80851380D01*
X163393380Y-80232333D01*
%TO.C,J3*%
X162774380Y-94948333D02*
X163488666Y-94948333D01*
X163631523Y-94995952D01*
X163726761Y-95091190D01*
X163774380Y-95234047D01*
X163774380Y-95329285D01*
X162774380Y-94567380D02*
X162774380Y-93948333D01*
X163155333Y-94281666D01*
X163155333Y-94138809D01*
X163202952Y-94043571D01*
X163250571Y-93995952D01*
X163345809Y-93948333D01*
X163583904Y-93948333D01*
X163679142Y-93995952D01*
X163726761Y-94043571D01*
X163774380Y-94138809D01*
X163774380Y-94424523D01*
X163726761Y-94519761D01*
X163679142Y-94567380D01*
%TO.C,J7*%
X124222380Y-62683333D02*
X124936666Y-62683333D01*
X125079523Y-62730952D01*
X125174761Y-62826190D01*
X125222380Y-62969047D01*
X125222380Y-63064285D01*
X124222380Y-62302380D02*
X124222380Y-61635714D01*
X125222380Y-62064285D01*
%TO.C,J5*%
X133422380Y-111033333D02*
X134136666Y-111033333D01*
X134279523Y-111080952D01*
X134374761Y-111176190D01*
X134422380Y-111319047D01*
X134422380Y-111414285D01*
X133422380Y-110080952D02*
X133422380Y-110557142D01*
X133898571Y-110604761D01*
X133850952Y-110557142D01*
X133803333Y-110461904D01*
X133803333Y-110223809D01*
X133850952Y-110128571D01*
X133898571Y-110080952D01*
X133993809Y-110033333D01*
X134231904Y-110033333D01*
X134327142Y-110080952D01*
X134374761Y-110128571D01*
X134422380Y-110223809D01*
X134422380Y-110461904D01*
X134374761Y-110557142D01*
X134327142Y-110604761D01*
%TO.C,SW1*%
X149034666Y-68095761D02*
X149177523Y-68143380D01*
X149415619Y-68143380D01*
X149510857Y-68095761D01*
X149558476Y-68048142D01*
X149606095Y-67952904D01*
X149606095Y-67857666D01*
X149558476Y-67762428D01*
X149510857Y-67714809D01*
X149415619Y-67667190D01*
X149225142Y-67619571D01*
X149129904Y-67571952D01*
X149082285Y-67524333D01*
X149034666Y-67429095D01*
X149034666Y-67333857D01*
X149082285Y-67238619D01*
X149129904Y-67191000D01*
X149225142Y-67143380D01*
X149463238Y-67143380D01*
X149606095Y-67191000D01*
X149939428Y-67143380D02*
X150177523Y-68143380D01*
X150368000Y-67429095D01*
X150558476Y-68143380D01*
X150796571Y-67143380D01*
X151701333Y-68143380D02*
X151129904Y-68143380D01*
X151415619Y-68143380D02*
X151415619Y-67143380D01*
X151320380Y-67286238D01*
X151225142Y-67381476D01*
X151129904Y-67429095D01*
%TO.C,Q3*%
X125792619Y-68802238D02*
X125745000Y-68897476D01*
X125649761Y-68992714D01*
X125506904Y-69135571D01*
X125459285Y-69230809D01*
X125459285Y-69326047D01*
X125697380Y-69278428D02*
X125649761Y-69373666D01*
X125554523Y-69468904D01*
X125364047Y-69516523D01*
X125030714Y-69516523D01*
X124840238Y-69468904D01*
X124745000Y-69373666D01*
X124697380Y-69278428D01*
X124697380Y-69087952D01*
X124745000Y-68992714D01*
X124840238Y-68897476D01*
X125030714Y-68849857D01*
X125364047Y-68849857D01*
X125554523Y-68897476D01*
X125649761Y-68992714D01*
X125697380Y-69087952D01*
X125697380Y-69278428D01*
X124697380Y-68516523D02*
X124697380Y-67897476D01*
X125078333Y-68230809D01*
X125078333Y-68087952D01*
X125125952Y-67992714D01*
X125173571Y-67945095D01*
X125268809Y-67897476D01*
X125506904Y-67897476D01*
X125602142Y-67945095D01*
X125649761Y-67992714D01*
X125697380Y-68087952D01*
X125697380Y-68373666D01*
X125649761Y-68468904D01*
X125602142Y-68516523D01*
%TO.C,J6*%
X156192380Y-110983333D02*
X156906666Y-110983333D01*
X157049523Y-111030952D01*
X157144761Y-111126190D01*
X157192380Y-111269047D01*
X157192380Y-111364285D01*
X156192380Y-110078571D02*
X156192380Y-110269047D01*
X156240000Y-110364285D01*
X156287619Y-110411904D01*
X156430476Y-110507142D01*
X156620952Y-110554761D01*
X157001904Y-110554761D01*
X157097142Y-110507142D01*
X157144761Y-110459523D01*
X157192380Y-110364285D01*
X157192380Y-110173809D01*
X157144761Y-110078571D01*
X157097142Y-110030952D01*
X157001904Y-109983333D01*
X156763809Y-109983333D01*
X156668571Y-110030952D01*
X156620952Y-110078571D01*
X156573333Y-110173809D01*
X156573333Y-110364285D01*
X156620952Y-110459523D01*
X156668571Y-110507142D01*
X156763809Y-110554761D01*
%TO.C,J1*%
X162774380Y-70818333D02*
X163488666Y-70818333D01*
X163631523Y-70865952D01*
X163726761Y-70961190D01*
X163774380Y-71104047D01*
X163774380Y-71199285D01*
X163774380Y-69818333D02*
X163774380Y-70389761D01*
X163774380Y-70104047D02*
X162774380Y-70104047D01*
X162917238Y-70199285D01*
X163012476Y-70294523D01*
X163060095Y-70389761D01*
%TO.C,R1*%
X157948333Y-66746380D02*
X157615000Y-66270190D01*
X157376904Y-66746380D02*
X157376904Y-65746380D01*
X157757857Y-65746380D01*
X157853095Y-65794000D01*
X157900714Y-65841619D01*
X157948333Y-65936857D01*
X157948333Y-66079714D01*
X157900714Y-66174952D01*
X157853095Y-66222571D01*
X157757857Y-66270190D01*
X157376904Y-66270190D01*
X158900714Y-66746380D02*
X158329285Y-66746380D01*
X158615000Y-66746380D02*
X158615000Y-65746380D01*
X158519761Y-65889238D01*
X158424523Y-65984476D01*
X158329285Y-66032095D01*
%TO.C,J10*%
X117209380Y-65531523D02*
X117923666Y-65531523D01*
X118066523Y-65579142D01*
X118161761Y-65674380D01*
X118209380Y-65817238D01*
X118209380Y-65912476D01*
X118209380Y-64531523D02*
X118209380Y-65102952D01*
X118209380Y-64817238D02*
X117209380Y-64817238D01*
X117352238Y-64912476D01*
X117447476Y-65007714D01*
X117495095Y-65102952D01*
X117209380Y-63912476D02*
X117209380Y-63817238D01*
X117257000Y-63722000D01*
X117304619Y-63674380D01*
X117399857Y-63626761D01*
X117590333Y-63579142D01*
X117828428Y-63579142D01*
X118018904Y-63626761D01*
X118114142Y-63674380D01*
X118161761Y-63722000D01*
X118209380Y-63817238D01*
X118209380Y-63912476D01*
X118161761Y-64007714D01*
X118114142Y-64055333D01*
X118018904Y-64102952D01*
X117828428Y-64150571D01*
X117590333Y-64150571D01*
X117399857Y-64102952D01*
X117304619Y-64055333D01*
X117257000Y-64007714D01*
X117209380Y-63912476D01*
%TO.C,LS1*%
X135244000Y-94232333D02*
X134577333Y-94232333D01*
X134577333Y-92832333D01*
X135644000Y-94165666D02*
X135844000Y-94232333D01*
X136177333Y-94232333D01*
X136310666Y-94165666D01*
X136377333Y-94099000D01*
X136444000Y-93965666D01*
X136444000Y-93832333D01*
X136377333Y-93699000D01*
X136310666Y-93632333D01*
X136177333Y-93565666D01*
X135910666Y-93499000D01*
X135777333Y-93432333D01*
X135710666Y-93365666D01*
X135644000Y-93232333D01*
X135644000Y-93099000D01*
X135710666Y-92965666D01*
X135777333Y-92899000D01*
X135910666Y-92832333D01*
X136244000Y-92832333D01*
X136444000Y-92899000D01*
X137777333Y-94232333D02*
X136977333Y-94232333D01*
X137377333Y-94232333D02*
X137377333Y-92832333D01*
X137244000Y-93032333D01*
X137110666Y-93165666D01*
X136977333Y-93232333D01*
%TO.C,J11*%
X117463380Y-77210523D02*
X118177666Y-77210523D01*
X118320523Y-77258142D01*
X118415761Y-77353380D01*
X118463380Y-77496238D01*
X118463380Y-77591476D01*
X118463380Y-76210523D02*
X118463380Y-76781952D01*
X118463380Y-76496238D02*
X117463380Y-76496238D01*
X117606238Y-76591476D01*
X117701476Y-76686714D01*
X117749095Y-76781952D01*
X118463380Y-75258142D02*
X118463380Y-75829571D01*
X118463380Y-75543857D02*
X117463380Y-75543857D01*
X117606238Y-75639095D01*
X117701476Y-75734333D01*
X117749095Y-75829571D01*
%TO.C,J4*%
X163282380Y-98250333D02*
X163996666Y-98250333D01*
X164139523Y-98297952D01*
X164234761Y-98393190D01*
X164282380Y-98536047D01*
X164282380Y-98631285D01*
X163615714Y-97345571D02*
X164282380Y-97345571D01*
X163234761Y-97583666D02*
X163949047Y-97821761D01*
X163949047Y-97202714D01*
%TO.C,J12*%
X118070380Y-93265523D02*
X118784666Y-93265523D01*
X118927523Y-93313142D01*
X119022761Y-93408380D01*
X119070380Y-93551238D01*
X119070380Y-93646476D01*
X119070380Y-92265523D02*
X119070380Y-92836952D01*
X119070380Y-92551238D02*
X118070380Y-92551238D01*
X118213238Y-92646476D01*
X118308476Y-92741714D01*
X118356095Y-92836952D01*
X118165619Y-91884571D02*
X118118000Y-91836952D01*
X118070380Y-91741714D01*
X118070380Y-91503619D01*
X118118000Y-91408380D01*
X118165619Y-91360761D01*
X118260857Y-91313142D01*
X118356095Y-91313142D01*
X118498952Y-91360761D01*
X119070380Y-91932190D01*
X119070380Y-91313142D01*
D11*
%TO.C,U1*%
X155994000Y-80160000D02*
X155294000Y-80160000D01*
X155994000Y-79960000D02*
X155994000Y-80160000D01*
X157354000Y-79660000D02*
X156104000Y-79660000D01*
X153534000Y-80160000D02*
X153534000Y-87480000D01*
X153334000Y-79960000D02*
X153334000Y-87680000D01*
X156854000Y-80160000D02*
X156854000Y-87480000D01*
X155994000Y-87480000D02*
X155294000Y-87480000D01*
X155294000Y-87480000D02*
X155294000Y-87680000D01*
X153534000Y-87480000D02*
X155294000Y-87480000D01*
X155994000Y-80160000D02*
X156854000Y-80160000D01*
X155294000Y-80160000D02*
X153534000Y-80160000D01*
X156854000Y-87480000D02*
X155994000Y-87480000D01*
X155294000Y-80160000D02*
X155294000Y-79960000D01*
X157354000Y-80910000D02*
X157354000Y-79660000D01*
X157054000Y-87680000D02*
X157054000Y-79960000D01*
X155994000Y-87480000D02*
X155994000Y-87680000D01*
X157054000Y-79960000D02*
X153334000Y-79960000D01*
X153334000Y-87680000D02*
X157054000Y-87680000D01*
%TO.C,Q2*%
X122227000Y-98004000D02*
X122227000Y-108244000D01*
X123737000Y-108244000D02*
X119096000Y-108244000D01*
X119096000Y-98004000D02*
X119096000Y-108244000D01*
X123737000Y-98004000D02*
X119096000Y-98004000D01*
X123737000Y-98004000D02*
X123737000Y-108244000D01*
X123737000Y-104975000D02*
X122227000Y-104975000D01*
X123737000Y-101274000D02*
X122227000Y-101274000D01*
%TO.C,Q1*%
X118197000Y-85813000D02*
X118197000Y-90454000D01*
X128437000Y-85813000D02*
X128437000Y-90454000D01*
X118197000Y-85813000D02*
X128437000Y-85813000D01*
X125168000Y-85813000D02*
X125168000Y-87323000D01*
X121467000Y-85813000D02*
X121467000Y-87323000D01*
X118197000Y-87323000D02*
X128437000Y-87323000D01*
X118197000Y-90454000D02*
X128437000Y-90454000D01*
%TO.C,R6*%
X154447000Y-75915000D02*
X150607000Y-75915000D01*
X154447000Y-77755000D02*
X150607000Y-77755000D01*
%TO.C,R5*%
X161559000Y-99029000D02*
X157719000Y-99029000D01*
X161559000Y-100869000D02*
X157719000Y-100869000D01*
%TO.C,R4*%
X160924000Y-89123000D02*
X157084000Y-89123000D01*
X160924000Y-90963000D02*
X157084000Y-90963000D01*
%TO.C,R3*%
X162194000Y-71978000D02*
X158354000Y-71978000D01*
X162194000Y-73818000D02*
X158354000Y-73818000D01*
%TO.C,R2*%
X163336500Y-66754742D02*
X163336500Y-67229258D01*
X162291500Y-66754742D02*
X162291500Y-67229258D01*
%TO.C,J9*%
X116967000Y-99187000D02*
X109347000Y-99187000D01*
X109347000Y-99187000D02*
X109347000Y-109347000D01*
X110617000Y-109347000D02*
X110617000Y-99187000D01*
X116967000Y-109347000D02*
X116967000Y-99187000D01*
X109347000Y-109347000D02*
X116967000Y-109347000D01*
%TO.C,J8*%
X152660000Y-63720000D02*
X152660000Y-62390000D01*
X155260000Y-63720000D02*
X173100000Y-63720000D01*
X155260000Y-63720000D02*
X155260000Y-61060000D01*
X173100000Y-63720000D02*
X173100000Y-61060000D01*
X153990000Y-63720000D02*
X152660000Y-63720000D01*
X155260000Y-61060000D02*
X173100000Y-61060000D01*
%TO.C,R7*%
X143221064Y-68093000D02*
X141766936Y-68093000D01*
X143221064Y-66273000D02*
X141766936Y-66273000D01*
%TO.C,J2*%
X164211000Y-75819000D02*
X164211000Y-85979000D01*
X164211000Y-85979000D02*
X171831000Y-85979000D01*
X171831000Y-85979000D02*
X171831000Y-75819000D01*
X170561000Y-75819000D02*
X170561000Y-85979000D01*
X171831000Y-75819000D02*
X164211000Y-75819000D01*
%TO.C,J3*%
X171831000Y-96774000D02*
X171831000Y-86614000D01*
X170561000Y-86614000D02*
X170561000Y-96774000D01*
X164211000Y-96774000D02*
X171831000Y-96774000D01*
X171831000Y-86614000D02*
X164211000Y-86614000D01*
X164211000Y-86614000D02*
X164211000Y-96774000D01*
%TO.C,J7*%
X127100000Y-63680000D02*
X125770000Y-63680000D01*
X128370000Y-63680000D02*
X151290000Y-63680000D01*
X151290000Y-63680000D02*
X151290000Y-61020000D01*
X128370000Y-63680000D02*
X128370000Y-61020000D01*
X128370000Y-61020000D02*
X151290000Y-61020000D01*
X125770000Y-63680000D02*
X125770000Y-62350000D01*
%TO.C,J5*%
X134970000Y-112030000D02*
X134970000Y-110700000D01*
X136300000Y-112030000D02*
X134970000Y-112030000D01*
X155410000Y-112030000D02*
X155410000Y-109370000D01*
X137570000Y-112030000D02*
X137570000Y-109370000D01*
X137570000Y-109370000D02*
X155410000Y-109370000D01*
X137570000Y-112030000D02*
X155410000Y-112030000D01*
D12*
%TO.C,SW1*%
X149908000Y-68628000D02*
X155908000Y-68628000D01*
X149908000Y-70553000D02*
X149908000Y-68628000D01*
X155908000Y-68628000D02*
X155908000Y-70553000D01*
X149908000Y-74628000D02*
X149908000Y-72703000D01*
X155908000Y-72703000D02*
X155908000Y-74628000D01*
X155908000Y-74628000D02*
X149908000Y-74628000D01*
D13*
X149208000Y-71628000D02*
G75*
G03*
X149208000Y-71628000I-100000J0D01*
G01*
D11*
%TO.C,Q3*%
X124245000Y-63587000D02*
X124245000Y-73827000D01*
X122735000Y-63587000D02*
X122735000Y-73827000D01*
X124245000Y-70558000D02*
X122735000Y-70558000D01*
X124245000Y-66857000D02*
X122735000Y-66857000D01*
X124245000Y-73827000D02*
X119604000Y-73827000D01*
X124245000Y-63587000D02*
X119604000Y-63587000D01*
X119604000Y-63587000D02*
X119604000Y-73827000D01*
%TO.C,J6*%
X160340000Y-111980000D02*
X160340000Y-109320000D01*
X173100000Y-111980000D02*
X173100000Y-109320000D01*
X160340000Y-111980000D02*
X173100000Y-111980000D01*
X159070000Y-111980000D02*
X157740000Y-111980000D01*
X157740000Y-111980000D02*
X157740000Y-110650000D01*
X160340000Y-109320000D02*
X173100000Y-109320000D01*
%TO.C,J1*%
X164211000Y-75057000D02*
X171831000Y-75057000D01*
X164211000Y-64897000D02*
X164211000Y-75057000D01*
X170561000Y-64897000D02*
X170561000Y-75057000D01*
X171831000Y-75057000D02*
X171831000Y-64897000D01*
X171831000Y-64897000D02*
X164211000Y-64897000D01*
%TO.C,R1*%
X157877742Y-68213500D02*
X158352258Y-68213500D01*
X157877742Y-67168500D02*
X158352258Y-67168500D01*
%TO.C,J10*%
X109347000Y-73914000D02*
X116967000Y-73914000D01*
X116967000Y-63754000D02*
X109347000Y-63754000D01*
X116967000Y-73914000D02*
X116967000Y-63754000D01*
X110617000Y-73914000D02*
X110617000Y-63754000D01*
X109347000Y-63754000D02*
X109347000Y-73914000D01*
D12*
%TO.C,LS1*%
X142498000Y-101092000D02*
G75*
G03*
X142498000Y-101092000I-6100000J0D01*
G01*
D11*
%TO.C,J11*%
X109347000Y-74930000D02*
X109347000Y-85090000D01*
X116967000Y-85090000D02*
X116967000Y-74930000D01*
X110617000Y-85090000D02*
X110617000Y-74930000D01*
X116967000Y-74930000D02*
X109347000Y-74930000D01*
X109347000Y-85090000D02*
X116967000Y-85090000D01*
%TO.C,J4*%
X164719000Y-97409000D02*
X164719000Y-107569000D01*
X172339000Y-97409000D02*
X164719000Y-97409000D01*
X171069000Y-97409000D02*
X171069000Y-107569000D01*
X172339000Y-107569000D02*
X172339000Y-97409000D01*
X164719000Y-107569000D02*
X172339000Y-107569000D01*
%TO.C,J12*%
X111252000Y-96520000D02*
X111252000Y-86360000D01*
X109982000Y-96520000D02*
X117602000Y-96520000D01*
X109982000Y-86360000D02*
X109982000Y-96520000D01*
X117602000Y-86360000D02*
X109982000Y-86360000D01*
X117602000Y-96520000D02*
X117602000Y-86360000D01*
%TD*%
M02*
