%TF.GenerationSoftware,KiCad,Pcbnew,(6.0.2)*%
%TF.CreationDate,2024-03-29T16:16:56-05:00*%
%TF.ProjectId,Security_Mat,53656375-7269-4747-995f-4d61742e6b69,rev?*%
%TF.SameCoordinates,Original*%
%TF.FileFunction,Copper,L2,Bot*%
%TF.FilePolarity,Positive*%
%FSLAX46Y46*%
G04 Gerber Fmt 4.6, Leading zero omitted, Abs format (unit mm)*
G04 Created by KiCad (PCBNEW (6.0.2)) date 2024-03-29 16:16:56*
%MOMM*%
%LPD*%
G01*
G04 APERTURE LIST*
%TA.AperFunction,ComponentPad*%
%ADD10C,1.170000*%
%TD*%
%TA.AperFunction,ComponentPad*%
%ADD11O,2.000000X1.905000*%
%TD*%
%TA.AperFunction,ComponentPad*%
%ADD12O,1.905000X2.000000*%
%TD*%
%TA.AperFunction,ComponentPad*%
%ADD13C,1.400000*%
%TD*%
%TA.AperFunction,ComponentPad*%
%ADD14O,1.400000X1.400000*%
%TD*%
%TA.AperFunction,ComponentPad*%
%ADD15R,3.000000X3.000000*%
%TD*%
%TA.AperFunction,ComponentPad*%
%ADD16C,3.000000*%
%TD*%
%TA.AperFunction,ComponentPad*%
%ADD17R,1.700000X1.700000*%
%TD*%
%TA.AperFunction,ComponentPad*%
%ADD18O,1.700000X1.700000*%
%TD*%
%TA.AperFunction,ComponentPad*%
%ADD19C,1.508000*%
%TD*%
%TA.AperFunction,ComponentPad*%
%ADD20R,2.000000X1.905000*%
%TD*%
%TA.AperFunction,ComponentPad*%
%ADD21C,1.280000*%
%TD*%
G04 APERTURE END LIST*
D10*
%TO.P,U1,1,RXD*%
%TO.N,Net-(R6-Pad1)*%
X155644000Y-81570000D03*
%TO.P,U1,2,TX*%
%TO.N,Net-(J7-Pad9)*%
X155644000Y-83070000D03*
%TO.P,U1,3,GND*%
%TO.N,Net-(R7-Pad1)*%
X155644000Y-84570000D03*
%TO.P,U1,4,Vcc*%
%TO.N,/5V*%
X155644000Y-86070000D03*
%TD*%
D11*
%TO.P,Q2,1,G*%
%TO.N,Net-(J11-Pad2)*%
X120467000Y-100584000D03*
%TO.P,Q2,2,D*%
%TO.N,Net-(J7-Pad6)*%
X120467000Y-103124000D03*
%TO.P,Q2,3,S*%
%TO.N,GND*%
X120467000Y-105664000D03*
%TD*%
D12*
%TO.P,Q1,3,S*%
%TO.N,GND*%
X125857000Y-89083000D03*
%TO.P,Q1,2,D*%
%TO.N,Net-(J7-Pad5)*%
X123317000Y-89083000D03*
%TO.P,Q1,1,G*%
%TO.N,Net-(J12-Pad2)*%
X120777000Y-89083000D03*
%TD*%
D13*
%TO.P,R6,1*%
%TO.N,Net-(R6-Pad1)*%
X155067000Y-76835000D03*
D14*
%TO.P,R6,2*%
%TO.N,Net-(J7-Pad10)*%
X149987000Y-76835000D03*
%TD*%
D13*
%TO.P,R5,1*%
%TO.N,Net-(J4-Pad2)*%
X162179000Y-99949000D03*
D14*
%TO.P,R5,2*%
%TO.N,GND*%
X157099000Y-99949000D03*
%TD*%
D13*
%TO.P,R4,1*%
%TO.N,Net-(J3-Pad2)*%
X161544000Y-90043000D03*
D14*
%TO.P,R4,2*%
%TO.N,GND*%
X156464000Y-90043000D03*
%TD*%
D13*
%TO.P,R3,1*%
%TO.N,Net-(J2-Pad2)*%
X162814000Y-72898000D03*
D14*
%TO.P,R3,2*%
%TO.N,GND*%
X157734000Y-72898000D03*
%TD*%
D15*
%TO.P,J9,1,Pin_1*%
%TO.N,unconnected-(J9-Pad1)*%
X113157000Y-101727000D03*
D16*
%TO.P,J9,2,Pin_2*%
%TO.N,Net-(J5-Pad8)*%
X113157000Y-106807000D03*
%TD*%
D17*
%TO.P,J8,1,7*%
%TO.N,Net-(J8-Pad1)*%
X153990000Y-62390000D03*
D18*
%TO.P,J8,2,6*%
%TO.N,unconnected-(J8-Pad2)*%
X156530000Y-62390000D03*
%TO.P,J8,3,5*%
%TO.N,unconnected-(J8-Pad3)*%
X159070000Y-62390000D03*
%TO.P,J8,4,4*%
%TO.N,unconnected-(J8-Pad4)*%
X161610000Y-62390000D03*
%TO.P,J8,5,3*%
%TO.N,unconnected-(J8-Pad5)*%
X164150000Y-62390000D03*
%TO.P,J8,6,2*%
%TO.N,unconnected-(J8-Pad6)*%
X166690000Y-62390000D03*
%TO.P,J8,7,TX-1*%
%TO.N,unconnected-(J8-Pad7)*%
X169230000Y-62390000D03*
%TO.P,J8,8,RX-0*%
%TO.N,unconnected-(J8-Pad8)*%
X171770000Y-62390000D03*
%TD*%
D15*
%TO.P,J2,1,Pin_1*%
%TO.N,/5V*%
X168021000Y-83439000D03*
D16*
%TO.P,J2,2,Pin_2*%
%TO.N,Net-(J2-Pad2)*%
X168021000Y-78359000D03*
%TD*%
D15*
%TO.P,J3,1,Pin_1*%
%TO.N,/5V*%
X168021000Y-94234000D03*
D16*
%TO.P,J3,2,Pin_2*%
%TO.N,Net-(J3-Pad2)*%
X168021000Y-89154000D03*
%TD*%
D18*
%TO.P,J7,10,8*%
%TO.N,Net-(J7-Pad10)*%
X149960000Y-62350000D03*
%TO.P,J7,9,9*%
%TO.N,Net-(J7-Pad9)*%
X147420000Y-62350000D03*
%TO.P,J7,8,10*%
%TO.N,Net-(J7-Pad8)*%
X144880000Y-62350000D03*
%TO.P,J7,7,11*%
%TO.N,Net-(J7-Pad7)*%
X142340000Y-62350000D03*
%TO.P,J7,6,12*%
%TO.N,Net-(J7-Pad6)*%
X139800000Y-62350000D03*
%TO.P,J7,5,13*%
%TO.N,Net-(J7-Pad5)*%
X137260000Y-62350000D03*
%TO.P,J7,4,GND*%
%TO.N,Net-(J7-Pad4)*%
X134720000Y-62350000D03*
%TO.P,J7,3,AREF*%
%TO.N,unconnected-(J7-Pad3)*%
X132180000Y-62350000D03*
%TO.P,J7,2,SDA*%
%TO.N,unconnected-(J7-Pad2)*%
X129640000Y-62350000D03*
D17*
%TO.P,J7,1,SCL*%
%TO.N,unconnected-(J7-Pad1)*%
X127100000Y-62350000D03*
%TD*%
%TO.P,J5,1*%
%TO.N,unconnected-(J5-Pad1)*%
X136300000Y-110700000D03*
D18*
%TO.P,J5,2,IOREF*%
%TO.N,unconnected-(J5-Pad2)*%
X138840000Y-110700000D03*
%TO.P,J5,3,RESET*%
%TO.N,unconnected-(J5-Pad3)*%
X141380000Y-110700000D03*
%TO.P,J5,4,3.3V*%
%TO.N,unconnected-(J5-Pad4)*%
X143920000Y-110700000D03*
%TO.P,J5,5,5V*%
%TO.N,/5V*%
X146460000Y-110700000D03*
%TO.P,J5,6,GND*%
%TO.N,unconnected-(J5-Pad6)*%
X149000000Y-110700000D03*
%TO.P,J5,7,GND*%
%TO.N,unconnected-(J5-Pad7)*%
X151540000Y-110700000D03*
%TO.P,J5,8,Vin*%
%TO.N,Net-(J5-Pad8)*%
X154080000Y-110700000D03*
%TD*%
D19*
%TO.P,SW1,1,A*%
%TO.N,/5V*%
X150408000Y-71628000D03*
%TO.P,SW1,2,B*%
%TO.N,Net-(J8-Pad1)*%
X155408000Y-71628000D03*
%TD*%
D20*
%TO.P,Q3,1,G*%
%TO.N,Net-(J10-Pad2)*%
X120975000Y-66167000D03*
D11*
%TO.P,Q3,2,D*%
%TO.N,Net-(J7-Pad7)*%
X120975000Y-68707000D03*
%TO.P,Q3,3,S*%
%TO.N,GND*%
X120975000Y-71247000D03*
%TD*%
D17*
%TO.P,J6,1,A0*%
%TO.N,Net-(J1-Pad2)*%
X159070000Y-110650000D03*
D18*
%TO.P,J6,2,A1*%
%TO.N,Net-(J2-Pad2)*%
X161610000Y-110650000D03*
%TO.P,J6,3,A2*%
%TO.N,Net-(J3-Pad2)*%
X164150000Y-110650000D03*
%TO.P,J6,4,A3*%
%TO.N,Net-(J4-Pad2)*%
X166690000Y-110650000D03*
%TO.P,J6,5,A4*%
%TO.N,unconnected-(J6-Pad5)*%
X169230000Y-110650000D03*
%TO.P,J6,6,A5*%
%TO.N,unconnected-(J6-Pad6)*%
X171770000Y-110650000D03*
%TD*%
D15*
%TO.P,J1,1,Pin_1*%
%TO.N,/5V*%
X168021000Y-72517000D03*
D16*
%TO.P,J1,2,Pin_2*%
%TO.N,Net-(J1-Pad2)*%
X168021000Y-67437000D03*
%TD*%
D15*
%TO.P,J10,1,Pin_1*%
%TO.N,unconnected-(J10-Pad1)*%
X113157000Y-66294000D03*
D16*
%TO.P,J10,2,Pin_2*%
%TO.N,Net-(J10-Pad2)*%
X113157000Y-71374000D03*
%TD*%
D21*
%TO.P,LS1,1*%
%TO.N,Net-(J7-Pad8)*%
X138898000Y-101092000D03*
%TO.P,LS1,2*%
%TO.N,GND*%
X133898000Y-101092000D03*
%TD*%
D15*
%TO.P,J11,1,Pin_1*%
%TO.N,unconnected-(J11-Pad1)*%
X113157000Y-77470000D03*
D16*
%TO.P,J11,2,Pin_2*%
%TO.N,Net-(J11-Pad2)*%
X113157000Y-82550000D03*
%TD*%
D15*
%TO.P,J4,1,Pin_1*%
%TO.N,/5V*%
X168529000Y-105029000D03*
D16*
%TO.P,J4,2,Pin_2*%
%TO.N,Net-(J4-Pad2)*%
X168529000Y-99949000D03*
%TD*%
D15*
%TO.P,J12,1,Pin_1*%
%TO.N,unconnected-(J12-Pad1)*%
X113792000Y-88900000D03*
D16*
%TO.P,J12,2,Pin_2*%
%TO.N,Net-(J12-Pad2)*%
X113792000Y-93980000D03*
%TD*%
M02*
