M48
; DRILL file {KiCad (6.0.2)} date Fri Mar 29 16:17:03 2024
; FORMAT={-:-/ absolute / metric / decimal}
; #@! TF.CreationDate,2024-03-29T16:17:03-05:00
; #@! TF.GenerationSoftware,Kicad,Pcbnew,(6.0.2)
; #@! TF.FileFunction,Plated,1,2,PTH
FMAT,2
METRIC
; #@! TA.AperFunction,Plated,PTH,ComponentDrill
T1C0.700
; #@! TA.AperFunction,Plated,PTH,ComponentDrill
T2C0.850
; #@! TA.AperFunction,Plated,PTH,ComponentDrill
T3C0.870
; #@! TA.AperFunction,Plated,PTH,ComponentDrill
T4C1.000
; #@! TA.AperFunction,Plated,PTH,ComponentDrill
T5C1.100
; #@! TA.AperFunction,Plated,PTH,ComponentDrill
T6C1.520
%
G90
G05
T1
X149.987Y-76.835
X155.067Y-76.835
X156.464Y-90.043
X157.099Y-99.949
X157.734Y-72.898
X161.544Y-90.043
X162.179Y-99.949
X162.814Y-72.898
T2
X133.898Y-101.092
X138.898Y-101.092
T3
X155.644Y-81.57
X155.644Y-83.07
X155.644Y-84.57
X155.644Y-86.07
T4
X127.1Y-62.35
X129.64Y-62.35
X132.18Y-62.35
X134.72Y-62.35
X136.3Y-110.7
X137.26Y-62.35
X138.84Y-110.7
X139.8Y-62.35
X141.38Y-110.7
X142.34Y-62.35
X143.92Y-110.7
X144.88Y-62.35
X146.46Y-110.7
X147.42Y-62.35
X149.0Y-110.7
X149.96Y-62.35
X150.408Y-71.628
X151.54Y-110.7
X153.99Y-62.39
X154.08Y-110.7
X155.408Y-71.628
X156.53Y-62.39
X159.07Y-62.39
X159.07Y-110.65
X161.61Y-62.39
X161.61Y-110.65
X164.15Y-62.39
X164.15Y-110.65
X166.69Y-62.39
X166.69Y-110.65
X169.23Y-62.39
X169.23Y-110.65
X171.77Y-62.39
X171.77Y-110.65
T5
X120.467Y-100.584
X120.467Y-103.124
X120.467Y-105.664
X120.777Y-89.083
X120.975Y-66.167
X120.975Y-68.707
X120.975Y-71.247
X123.317Y-89.083
X125.857Y-89.083
T6
X113.157Y-66.294
X113.157Y-71.374
X113.157Y-77.47
X113.157Y-82.55
X113.157Y-101.727
X113.157Y-106.807
X113.792Y-88.9
X113.792Y-93.98
X168.021Y-67.437
X168.021Y-72.517
X168.021Y-78.359
X168.021Y-83.439
X168.021Y-89.154
X168.021Y-94.234
X168.529Y-99.949
X168.529Y-105.029
T0
M30
