%TF.GenerationSoftware,KiCad,Pcbnew,(6.0.2)*%
%TF.CreationDate,2024-03-29T16:16:56-05:00*%
%TF.ProjectId,Security_Mat,53656375-7269-4747-995f-4d61742e6b69,rev?*%
%TF.SameCoordinates,Original*%
%TF.FileFunction,Soldermask,Bot*%
%TF.FilePolarity,Negative*%
%FSLAX46Y46*%
G04 Gerber Fmt 4.6, Leading zero omitted, Abs format (unit mm)*
G04 Created by KiCad (PCBNEW (6.0.2)) date 2024-03-29 16:16:56*
%MOMM*%
%LPD*%
G01*
G04 APERTURE LIST*
%ADD10C,1.170000*%
%ADD11O,2.000000X1.905000*%
%ADD12O,1.905000X2.000000*%
%ADD13C,1.400000*%
%ADD14O,1.400000X1.400000*%
%ADD15R,3.000000X3.000000*%
%ADD16C,3.000000*%
%ADD17R,1.700000X1.700000*%
%ADD18O,1.700000X1.700000*%
%ADD19C,1.712000*%
%ADD20R,2.000000X1.905000*%
%ADD21C,1.484000*%
G04 APERTURE END LIST*
D10*
%TO.C,U1*%
X155644000Y-81570000D03*
X155644000Y-83070000D03*
X155644000Y-84570000D03*
X155644000Y-86070000D03*
%TD*%
D11*
%TO.C,Q2*%
X120467000Y-100584000D03*
X120467000Y-103124000D03*
X120467000Y-105664000D03*
%TD*%
D12*
%TO.C,Q1*%
X125857000Y-89083000D03*
X123317000Y-89083000D03*
X120777000Y-89083000D03*
%TD*%
D13*
%TO.C,R6*%
X155067000Y-76835000D03*
D14*
X149987000Y-76835000D03*
%TD*%
D13*
%TO.C,R5*%
X162179000Y-99949000D03*
D14*
X157099000Y-99949000D03*
%TD*%
D13*
%TO.C,R4*%
X161544000Y-90043000D03*
D14*
X156464000Y-90043000D03*
%TD*%
D13*
%TO.C,R3*%
X162814000Y-72898000D03*
D14*
X157734000Y-72898000D03*
%TD*%
D15*
%TO.C,J9*%
X113157000Y-101727000D03*
D16*
X113157000Y-106807000D03*
%TD*%
D17*
%TO.C,J8*%
X153990000Y-62390000D03*
D18*
X156530000Y-62390000D03*
X159070000Y-62390000D03*
X161610000Y-62390000D03*
X164150000Y-62390000D03*
X166690000Y-62390000D03*
X169230000Y-62390000D03*
X171770000Y-62390000D03*
%TD*%
D15*
%TO.C,J2*%
X168021000Y-83439000D03*
D16*
X168021000Y-78359000D03*
%TD*%
D15*
%TO.C,J3*%
X168021000Y-94234000D03*
D16*
X168021000Y-89154000D03*
%TD*%
D18*
%TO.C,J7*%
X149960000Y-62350000D03*
X147420000Y-62350000D03*
X144880000Y-62350000D03*
X142340000Y-62350000D03*
X139800000Y-62350000D03*
X137260000Y-62350000D03*
X134720000Y-62350000D03*
X132180000Y-62350000D03*
X129640000Y-62350000D03*
D17*
X127100000Y-62350000D03*
%TD*%
%TO.C,J5*%
X136300000Y-110700000D03*
D18*
X138840000Y-110700000D03*
X141380000Y-110700000D03*
X143920000Y-110700000D03*
X146460000Y-110700000D03*
X149000000Y-110700000D03*
X151540000Y-110700000D03*
X154080000Y-110700000D03*
%TD*%
D19*
%TO.C,SW1*%
X150408000Y-71628000D03*
X155408000Y-71628000D03*
%TD*%
D20*
%TO.C,Q3*%
X120975000Y-66167000D03*
D11*
X120975000Y-68707000D03*
X120975000Y-71247000D03*
%TD*%
D17*
%TO.C,J6*%
X159070000Y-110650000D03*
D18*
X161610000Y-110650000D03*
X164150000Y-110650000D03*
X166690000Y-110650000D03*
X169230000Y-110650000D03*
X171770000Y-110650000D03*
%TD*%
D15*
%TO.C,J1*%
X168021000Y-72517000D03*
D16*
X168021000Y-67437000D03*
%TD*%
D15*
%TO.C,J10*%
X113157000Y-66294000D03*
D16*
X113157000Y-71374000D03*
%TD*%
D21*
%TO.C,LS1*%
X138898000Y-101092000D03*
X133898000Y-101092000D03*
%TD*%
D15*
%TO.C,J11*%
X113157000Y-77470000D03*
D16*
X113157000Y-82550000D03*
%TD*%
D15*
%TO.C,J4*%
X168529000Y-105029000D03*
D16*
X168529000Y-99949000D03*
%TD*%
D15*
%TO.C,J12*%
X113792000Y-88900000D03*
D16*
X113792000Y-93980000D03*
%TD*%
M02*
